<svg width="56" height="64" viewBox="0 0 56 64" fill="none" xmlns="http://www.w3.org/2000/svg">
<path d="M20.5 55H1V1H55V55H36H35.5858L35.2929 55.2929L28.0232 62.5626L21.2295 55.3161L20.9332 55H20.5Z" fill="white" stroke="#00A55A" stroke-width="2"/>
<path d="M42.6171 16.4305L38.9022 13.0454H20.6386L16.8557 17.5304L37.4971 17.549V37.4964L16.8557 37.5113L20.6386 42H38.9022L42.6171 38.5779V16.4305Z" fill="#272A68"/>
<path d="M35.0405 19.9453H14.9891L12 23.4896L35.0405 23.5045V19.9453Z" fill="#00A55A"/>
<path d="M35.0405 25.7153H14.9891L12 29.2597L35.0405 29.2745V25.7153Z" fill="#00A55A"/>
<path d="M35.0405 31.5596H14.9891L12 35.1039L35.0405 35.1187V31.5596Z" fill="#00A55A"/>
</svg>
